<svg width="17" height="17" viewBox="0 0 17 17" fill="none" xmlns="http://www.w3.org/2000/svg">
<path d="M11.305 8.50053L16.5642 3.24136C17.1452 2.66027 17.1452 1.71819 16.5642 1.13802L15.863 0.436902C15.2818 -0.144363 14.3397 -0.144363 13.7595 0.436902L8.50053 5.69589L3.24136 0.435813C2.66027 -0.145271 1.71819 -0.145271 1.13802 0.435813L0.435813 1.13693C-0.145271 1.71819 -0.145271 2.66027 0.435813 3.24045L5.69589 8.50053L0.436902 13.7595C-0.144363 14.3408 -0.144363 15.2829 0.436902 15.863L1.13802 16.5642C1.7191 17.1452 2.66118 17.1452 3.24136 16.5642L8.50053 11.305L13.7595 16.5642C14.3408 17.1452 15.2829 17.1452 15.863 16.5642L16.5642 15.863C17.1452 15.2818 17.1452 14.3397 16.5642 13.7595L11.305 8.50053Z" fill="white"/>
</svg>
