<svg width="17" height="17" viewBox="0 0 17 17" fill="none" xmlns="http://www.w3.org/2000/svg">
<g clip-path="url(#clip0)">
<path d="M15.7037 6.42286L16.5226 5.60394C17.2034 4.92327 17.2034 3.81564 16.5226 3.13484L13.8651 0.477295C13.1844 -0.203369 12.0767 -0.203369 11.3961 0.477295L10.5771 1.29622L15.7037 6.42286Z" fill="white"/>
<path d="M1.31995 10.5534L9.87261 2.00076L14.9991 7.12728L6.44646 15.68L1.31995 10.5534Z" fill="white"/>
<path d="M0.780725 11.4229L0.0608916 15.1502C-0.0353456 15.6486 0.121461 16.1604 0.48047 16.5195C0.769831 16.8088 1.15841 16.9668 1.55944 16.9668C1.65581 16.9668 1.75295 16.9577 1.84971 16.9389L5.57689 16.2192L0.780725 11.4229Z" fill="white"/>
</g>
<defs>
<clipPath id="clip0">
<rect width="17" height="17" fill="white"/>
</clipPath>
</defs>
</svg>
