<svg width="19" height="19" viewBox="0 0 19 19" fill="none" xmlns="http://www.w3.org/2000/svg">
<path d="M10.0721 8.84908L17.8717 2.34066C17.988 2.27355 18.118 2.24011 18.248 2.24011C18.3779 2.24011 18.5073 2.27378 18.6241 2.34066C18.8562 2.47507 19 2.72311 19 2.99162V16.0084C19 16.2766 18.8564 16.5249 18.6241 16.6593C18.3917 16.7933 18.1047 16.7933 17.8724 16.6593L10.0724 10.1506C9.83982 10.0166 9.69607 9.76808 9.69607 9.49988C9.69607 9.23141 9.83982 8.98314 10.0721 8.84908ZM0 9.49988C0 9.76808 0.143325 10.0166 0.376025 10.1506L8.17589 16.6591C8.40836 16.7933 8.69478 16.7933 8.92724 16.6591C9.15971 16.5247 9.30307 16.2766 9.30307 16.0082V2.99162C9.30307 2.72311 9.15994 2.47507 8.92724 2.34066C8.81089 2.27355 8.68123 2.24011 8.55137 2.24011C8.42144 2.24011 8.29209 2.27378 8.1757 2.34066L0.376025 8.84908C0.14352 8.98314 0 9.23141 0 9.49988Z" fill="white"/>
</svg>
