<svg width="17" height="18" viewBox="0 0 17 18" fill="none" xmlns="http://www.w3.org/2000/svg">
<g clip-path="url(#clip0)">
<path d="M12.2538 7.41836L2.80276 0.91754C2.41442 0.649834 2.01052 0.508545 1.66473 0.508545C0.905547 0.508545 0.402222 1.14531 0.402222 2.17V15.8388C0.402222 16.3394 0.54778 16.7576 0.763569 17.0487C0.982664 17.3439 1.32542 17.5 1.69572 17.5C2.04137 17.5 2.42929 17.3585 2.81749 17.0912L12.26 10.5903C12.8671 10.172 13.1999 9.60889 13.1998 9.00408C13.1998 8.39953 12.8617 7.83644 12.2538 7.41836Z" fill="white"/>
<path d="M15.7142 17.4958L15.7041 17.4956C15.7025 17.4956 15.7009 17.4958 15.6992 17.4958H15.7142Z" fill="white"/>
<path d="M15.6864 0.5L15.2958 0.501102C14.7842 0.501102 14.3413 0.918084 14.3413 1.43036V16.5566C14.3413 17.0694 14.7769 17.4904 15.2892 17.4904L15.7042 17.4956C16.2139 17.4929 16.5978 17.0683 16.5978 16.5574V1.4294C16.5978 0.91712 16.1984 0.5 15.6864 0.5Z" fill="white"/>
</g>
<defs>
<clipPath id="clip0">
<rect width="17" height="17" fill="white" transform="translate(0 0.5)"/>
</clipPath>
</defs>
</svg>
